<svg xmlns="http://www.w3.org/2000/svg" width="5000" height="2500" viewBox="0 0 50000 25000" preserveAspectRatio="none">
  <path id="canvas" fill="#6d8aa5" d="M.001 10009.3V8985.1h2001.9003v2048.4H.001zm2979.5003 0V8985.1h2048.4v2048.4h-2048.4zm3026.1 0V8985.1h2001.9v2048.4h-2001.9zm2979.4997 0V8985.1h2048.4v2048.4h-2048.4zm3026.1 0V8985.1h2001.8v2048.4h-2001.8zm2979.5 0V8985.1h2048.4v2048.4h-2048.4zm2979.5 0V8985.1h2048.4v2048.4h-2048.4zm12011.2 0V8985.1h2048.4v2048.4h-2048.4zm2979.5 0V8985.1h2048.4v2048.4h-2048.4zm3026.1 0V8985.1h2001.8v2048.4h-2001.8zm2979.5 0V8985.1h2048.4v2048.4h-2048.4zm3026 0V8985.1h2001.9v2048.4h-2001.9zm2979.6 0V8985.1h2048.4v2048.4h-2048.4zm3026 0V8985.1h2001.898v2048.4h-2001.898zM.001 7006.5V6005.6h2001.9003v2001.9H.001zm2979.5003 0V6005.6h2048.4v2001.9h-2048.4zm3026.1 0V6005.6h2001.9v2001.9h-2001.9zm2979.4997 0V6005.6h2048.4v2001.9h-2048.4zm3026.1 0V6005.6h2001.8v2001.9h-2001.8zm2979.5 0V6005.6h2048.4v2001.9h-2048.4zm2979.5 0V6005.6h2048.4v2001.9h-2048.4zm3026.1 0V6005.6h2001.8v2001.9h-2001.8zm6005.6 0V6005.6h2001.8v2001.9h-2001.8zm2979.5 0V6005.6h2048.4v2001.9h-2048.4zm2979.5 0V6005.6h2048.4v2001.9h-2048.4zm3026.1 0V6005.6h2001.8v2001.9h-2001.8zm2979.5 0V6005.6h2048.4v2001.9h-2048.4zm3026 0V6005.6h2001.9v2001.9h-2001.9zm2979.6 0V6005.6h2048.4v2001.9h-2048.4zm3026 0V6005.6h2001.898v2001.9h-2001.898zM.001 4003.7V2979.5h2001.9003v2048.4H.001zm2979.5003 0V2979.5h2048.4v2048.4h-2048.4zm3026.1 0V2979.5h2001.9v2048.4h-2001.9zm2979.4997 0V2979.5h2048.4v2048.4h-2048.4zm3026.1 0V2979.5h2001.8v2048.4h-2001.8zm2979.5 0V2979.5h2048.4v2048.4h-2048.4zm2979.5 0V2979.5h2048.4v2048.4h-2048.4zm3026.1 0V2979.5h2001.8v2048.4h-2001.8zm2979.5 0V2979.5h2048.4v2048.4h-2048.4zm3026.1 0V2979.5h2001.8v2048.4h-2001.8zm2979.5 0V2979.5h2048.4v2048.4h-2048.4zm2979.5 0V2979.5h2048.4v2048.4h-2048.4zm3026.1 0V2979.5h2001.8v2048.4h-2001.8zm2979.5 0V2979.5h2048.4v2048.4h-2048.4zm3026 0V2979.5h2001.9v2048.4h-2001.9zm2979.6 0V2979.5h2048.4v2048.4h-2048.4zm3026 0V2979.5h2001.898v2048.4h-2001.898zM2979.5013 1000.9V0h2048.4v2001.9h-2048.4zm3026.1 0V0h2001.9v2001.9h-2001.9zm2979.4997 0V0h2048.4v2001.9h-2048.4zm3026.1 0V0h2001.8v2001.9h-2001.8zm2979.5 0V0h2048.4v2001.9h-2048.4zm2979.5 0V0h2048.4v2001.9h-2048.4zm3026.1 0V0h2001.8v2001.9h-2001.8zm2979.5 0V0h2048.4v2001.9h-2048.4zm3026.1 0V0h2001.8v2001.9h-2001.8zm2979.5 0V0h2048.4v2001.9h-2048.4zm2979.5 0V0h2048.4v2001.9h-2048.4zm3026.1 0V0h2001.8v2001.9h-2001.8zm2979.5 0V0h2048.4v2001.9h-2048.4zm3026 0V0h2001.9v2001.9h-2001.9zm2979.6 0V0h2048.4v2001.9h-2048.4zM.001 19087.5v-1024.2h2001.9003v2048.4H.001zm2979.5003 0v-1024.2h2048.4v2048.4h-2048.4zm3026.1 0v-1024.2h2001.9v2048.4h-2001.9zm2979.4997 0v-1024.2h2048.4v2048.4h-2048.4zm3026.1 0v-1024.2h2001.8v2048.4h-2001.8zm2979.5 0v-1024.2h2048.4v2048.4h-2048.4zm2979.5 0v-1024.2h2048.4v2048.4h-2048.4zm3026.1 0v-1024.2h2001.8v2048.4h-2001.8zm2979.5 0v-1024.2h2048.4v2048.4h-2048.4zm3026.1 0v-1024.2h2001.8v2048.4h-2001.8zm2979.5 0v-1024.2h2048.4v2048.4h-2048.4zm2979.5 0v-1024.2h2048.4v2048.4h-2048.4zm3026.1 0v-1024.2h2001.8v2048.4h-2001.8zm2979.5 0v-1024.2h2048.4v2048.4h-2048.4zm3026 0v-1024.2h2001.9v2048.4h-2001.9zm2979.6 0v-1024.2h2048.4v2048.4h-2048.4zm3026 0v-1024.2h2001.898v2048.4h-2001.898zM.001 16084.7v-1000.9h2001.9003v2001.9H.001zm2979.5003 0v-1000.9h2048.4v2001.9h-2048.4zm3026.1 0v-1000.9h2001.9v2001.9h-2001.9zm2979.4997 0v-1000.9h2048.4v2001.9h-2048.4zm3026.1 0v-1000.9h2001.8v2001.9h-2001.8zm23975.8 0v-1000.9h2001.8v2001.9h-2001.8zm2979.5 0v-1000.9h2048.4v2001.9h-2048.4zm3026 0v-1000.9h2001.9v2001.9h-2001.9zm2979.6 0v-1000.9h2048.4v2001.9h-2048.4zm3026 0v-1000.9h2001.898v2001.9h-2001.898zM.001 13081.9v-1024.2h2001.9003v2048.4H.001zm2979.5003 0v-1024.2h2048.4v2048.4h-2048.4zm3026.1 0v-1024.2h2001.9v2048.4h-2001.9zm2979.4997 0v-1024.2h2048.4v2048.4h-2048.4zm3026.1 0v-1024.2h2001.8v2048.4h-2001.8zm2979.5 0v-1024.2h2048.4v2048.4h-2048.4zm17970.2 0v-1024.2h2048.4v2048.4h-2048.4zm3026.1 0v-1024.2h2001.8v2048.4h-2001.8zm2979.5 0v-1024.2h2048.4v2048.4h-2048.4zm3026 0v-1024.2h2001.9v2048.4h-2001.9zm2979.6 0v-1024.2h2048.4v2048.4h-2048.4zm3026 0v-1024.2h2001.898v2048.4h-2001.898zM.001 24487.9v-512.1h2001.9003V25000H.001zm2979.5003 0v-512.1h2048.4V25000h-2048.4zm3026.1 0v-512.1h2001.9V25000h-2001.9zm2979.4997 0v-512.1h2048.4V25000h-2048.4zm3026.1 0v-512.1h2001.8V25000h-2001.8zm2979.5 0v-512.1h2048.4V25000h-2048.4zm2979.5 0v-512.1h2048.4V25000h-2048.4zm3026.1 0v-512.1h2001.8V25000h-2001.8zm2979.5 0v-512.1h2048.4V25000h-2048.4zm3026.1 0v-512.1h2001.8V25000h-2001.8zm2979.5 0v-512.1h2048.4V25000h-2048.4zm2979.5 0v-512.1h2048.4V25000h-2048.4zm3026.1 0v-512.1h2001.8V25000h-2001.8zm2979.5 0v-512.1h2048.4V25000h-2048.4zm3026 0v-512.1h2001.9V25000h-2001.9zm2979.6 0v-512.1h2048.4V25000h-2048.4zm3026 0v-512.1h2001.898V25000h-2001.898zM.001 21997.8v-1001h2001.9003v2001.9H.001zm2979.5003 0v-1001h2048.4v2001.9h-2048.4zm3026.1 0v-1001h2001.9v2001.9h-2001.9zm2979.4997 0v-1001h2048.4v2001.9h-2048.4zm3026.1 0v-1001h2001.8v2001.9h-2001.8zm2979.5 0v-1001h2048.4v2001.9h-2048.4zm2979.5 0v-1001h2048.4v2001.9h-2048.4zm3026.1 0v-1001h2001.8v2001.9h-2001.8zm2979.5 0v-1001h2048.4v2001.9h-2048.4zm3026.1 0v-1001h2001.8v2001.9h-2001.8zm2979.5 0v-1001h2048.4v2001.9h-2048.4zm2979.5 0v-1001h2048.4v2001.9h-2048.4zm3026.1 0v-1001h2001.8v2001.9h-2001.8zm2979.5 0v-1001h2048.4v2001.9h-2048.4zm3026 0v-1001h2001.9v2001.9h-2001.9zm2979.6 0v-1001h2048.4v2001.9h-2048.4zm3026 0v-1001h2001.898v2001.9h-2001.898z" />
</svg>
