<svg id="sttbButtonImg" xmlns="http://www.w3.org/2000/svg" width="5000" height="5000" viewBox="0 0 50000 50000" preserveAspectRatio="none">
  <path id="sttbButtonImgBody" fill="#6d8aa5" d="M2979.5 48999.1v-1001h2048.4V50000H2979.5zm3026.1 0v-1001h2001.9V50000H6005.6zm2979.5 0v-1001h2048.4V50000H8985.1zm3026.1 0v-1001H14013V50000h-2001.8zm2979.5 0v-1001h2048.4V50000h-2048.4zm2979.5 0v-1001h2048.4V50000h-2048.4zm3026.1 0v-1001h2001.8V50000h-2001.8zm2979.5 0v-1001h2048.4V50000h-2048.4zm3026.1 0v-1001h2001.8V50000h-2001.8zm2979.5 0v-1001h2048.4V50000h-2048.4zm2979.5 0v-1001h2048.4V50000h-2048.4zm3026.1 0v-1001h2001.8V50000H35987zm2979.5 0v-1001h2048.4V50000h-2048.4zm3026 0v-1001h2001.9V50000h-2001.9zm2979.6 0v-1001h2048.4V50000h-2048.4zM0 45996.3v-1024.2h2001.9v2048.4H0zm2979.5 0v-1024.2h2048.4v2048.4H2979.5zm3026.1 0v-1024.2h2001.9v2048.4H6005.6zm2979.5 0v-1024.2h2048.4v2048.4H8985.1zm3026.1 0v-1024.2H14013v2048.4h-2001.8zm2979.5 0v-1024.2h2048.4v2048.4h-2048.4zm2979.5 0v-1024.2h2048.4v2048.4h-2048.4zm3026.1 0v-1024.2h2001.8v2048.4h-2001.8zm2979.5 0v-1024.2h2048.4v2048.4h-2048.4zm3026.1 0v-1024.2h2001.8v2048.4h-2001.8zm2979.5 0v-1024.2h2048.4v2048.4h-2048.4zm2979.5 0v-1024.2h2048.4v2048.4h-2048.4zm3026.1 0v-1024.2h2001.8v2048.4H35987zm2979.5 0v-1024.2h2048.4v2048.4h-2048.4zm3026 0v-1024.2h2001.9v2048.4h-2001.9zm2979.6 0v-1024.2h2048.4v2048.4h-2048.4zm3026 0v-1024.2H50000v2048.4h-2001.9zM0 42993.5v-1001h2001.9v2001.9H0zm2979.5 0v-1001h2048.4v2001.9H2979.5zm3026.1 0v-1001h2001.9v2001.9H6005.6zm2979.5 0v-1001h2048.4v2001.9H8985.1zm3026.1 0v-1001H14013v2001.9h-2001.8zm2979.5 0v-1001h2048.4v2001.9h-2048.4zm2979.5 0v-1001h2048.4v2001.9h-2048.4zm3026.1 0v-1001h2001.8v2001.9h-2001.8zm2979.5 0v-1001h2048.4v2001.9h-2048.4zm3026.1 0v-1001h2001.8v2001.9h-2001.8zm2979.5 0v-1001h2048.4v2001.9h-2048.4zm2979.5 0v-1001h2048.4v2001.9h-2048.4zm3026.1 0v-1001h2001.8v2001.9H35987zm2979.5 0v-1001h2048.4v2001.9h-2048.4zm3026 0v-1001h2001.9v2001.9h-2001.9zm2979.6 0v-1001h2048.4v2001.9h-2048.4zm3026 0v-1001H50000v2001.9h-2001.9zM0 39990.7v-1024.2h2001.9v2048.4H0zm2979.5 0v-1024.2h2048.4v2048.4H2979.5zm3026.1 0v-1024.2h2001.9v2048.4H6005.6zm2979.5 0v-1024.2h2048.4v2048.4H8985.1zm3026.1 0v-1024.2H14013v2048.4h-2001.8zm2979.5 0v-1024.2h2048.4v2048.4h-2048.4zm2979.5 0v-1024.2h2048.4v2048.4h-2048.4zm3026.1 0v-1024.2h2001.8v2048.4h-2001.8zm2979.5 0v-1024.2h2048.4v2048.4h-2048.4zm3026.1 0v-1024.2h2001.8v2048.4h-2001.8zm2979.5 0v-1024.2h2048.4v2048.4h-2048.4zm2979.5 0v-1024.2h2048.4v2048.4h-2048.4zm3026.1 0v-1024.2h2001.8v2048.4H35987zm2979.5 0v-1024.2h2048.4v2048.4h-2048.4zm3026 0v-1024.2h2001.9v2048.4h-2001.9zm2979.6 0v-1024.2h2048.4v2048.4h-2048.4zm3026 0v-1024.2H50000v2048.4h-2001.9zM0 36987.9V35987h2001.9v2001.8H0zm2979.5 0V35987h2048.4v2001.8H2979.5zm3026.1 0V35987h2001.9v2001.8H6005.6zm2979.5 0V35987h2048.4v2001.8H8985.1zm3026.1 0V35987H14013v2001.8h-2001.8zm2979.5 0V35987h2048.4v2001.8h-2048.4zm2979.5 0V35987h2048.4v2001.8h-2048.4zm12011.2 0V35987h2048.4v2001.8h-2048.4zm2979.5 0V35987h2048.4v2001.8h-2048.4zm3026.1 0V35987h2001.8v2001.8H35987zm2979.5 0V35987h2048.4v2001.8h-2048.4zm3026 0V35987h2001.9v2001.8h-2001.9zm2979.6 0V35987h2048.4v2001.8h-2048.4zm3026 0V35987H50000v2001.8h-2001.9zM0 33985.1v-1024.2h2001.9v2048.4H0zm2979.5 0v-1024.2h2048.4v2048.4H2979.5zm3026.1 0v-1024.2h2001.9v2048.4H6005.6zm2979.5 0v-1024.2h2048.4v2048.4H8985.1zm3026.1 0v-1024.2H14013v2048.4h-2001.8zm2979.5 0v-1024.2h2048.4v2048.4h-2048.4zm2979.5 0v-1024.2h2048.4v2048.4h-2048.4zm12011.2 0v-1024.2h2048.4v2048.4h-2048.4zm2979.5 0v-1024.2h2048.4v2048.4h-2048.4zm3026.1 0v-1024.2h2001.8v2048.4H35987zm2979.5 0v-1024.2h2048.4v2048.4h-2048.4zm3026 0v-1024.2h2001.9v2048.4h-2001.9zm2979.6 0v-1024.2h2048.4v2048.4h-2048.4zm3026 0v-1024.2H50000v2048.4h-2001.9zM0 31005.6v-1024.2h2001.9v2048.4H0zm2979.5 0v-1024.2h2048.4v2048.4H2979.5zm3026.1 0v-1024.2h2001.9v2048.4H6005.6zm2979.5 0v-1024.2h2048.4v2048.4H8985.1zm3026.1 0v-1024.2H14013v2048.4h-2001.8zm2979.5 0v-1024.2h2048.4v2048.4h-2048.4zm2979.5 0v-1024.2h2048.4v2048.4h-2048.4zm12011.2 0v-1024.2h2048.4v2048.4h-2048.4zm2979.5 0v-1024.2h2048.4v2048.4h-2048.4zm3026.1 0v-1024.2h2001.8v2048.4H35987zm2979.5 0v-1024.2h2048.4v2048.4h-2048.4zm3026 0v-1024.2h2001.9v2048.4h-2001.9zm2979.6 0v-1024.2h2048.4v2048.4h-2048.4zm3026 0v-1024.2H50000v2048.4h-2001.9zM0 28002.8v-1000.9h2001.9v2001.8H0zm2979.5 0v-1000.9h2048.4v2001.8H2979.5zm3026.1 0v-1000.9h2001.9v2001.8H6005.6zm2979.5 0v-1000.9h2048.4v2001.8H8985.1zm3026.1 0v-1000.9H14013v2001.8h-2001.8zm23975.8 0v-1000.9h2001.8v2001.8H35987zm2979.5 0v-1000.9h2048.4v2001.8h-2048.4zm3026 0v-1000.9h2001.9v2001.8h-2001.9zm2979.6 0v-1000.9h2048.4v2001.8h-2048.4zm3026 0v-1000.9H50000v2001.8h-2001.9zM0 25000v-1024.2h2001.9v2048.4H0zm2979.5 0v-1024.2h2048.4v2048.4H2979.5zm3026.1 0v-1024.2h2001.9v2048.4H6005.6zm2979.5 0v-1024.2h2048.4v2048.4H8985.1zm3026.1 0v-1024.2H14013v2048.4h-2001.8zm2979.5 0v-1024.2h2048.4v2048.4h-2048.4zm17970.2 0v-1024.2h2048.4v2048.4h-2048.4zm3026.1 0v-1024.2h2001.8v2048.4H35987zm2979.5 0v-1024.2h2048.4v2048.4h-2048.4zm3026 0v-1024.2h2001.9v2048.4h-2001.9zm2979.6 0v-1024.2h2048.4v2048.4h-2048.4zm3026 0v-1024.2H50000v2048.4h-2001.9zM0 21997.2v-1000.9h2001.9v2001.8H0zm2979.5 0v-1000.9h2048.4v2001.8H2979.5zm3026.1 0v-1000.9h2001.9v2001.8H6005.6zm2979.5 0v-1000.9h2048.4v2001.8H8985.1zm3026.1 0v-1000.9H14013v2001.8h-2001.8zm2979.5 0v-1000.9h2048.4v2001.8h-2048.4zm2979.5 0v-1000.9h2048.4v2001.8h-2048.4zm12011.2 0v-1000.9h2048.4v2001.8h-2048.4zm2979.5 0v-1000.9h2048.4v2001.8h-2048.4zm3026.1 0v-1000.9h2001.8v2001.8H35987zm2979.5 0v-1000.9h2048.4v2001.8h-2048.4zm3026 0v-1000.9h2001.9v2001.8h-2001.9zm2979.6 0v-1000.9h2048.4v2001.8h-2048.4zm3026 0v-1000.9H50000v2001.8h-2001.9zM0 18994.4v-1024.2h2001.9v2048.4H0zm2979.5 0v-1024.2h2048.4v2048.4H2979.5zm3026.1 0v-1024.2h2001.9v2048.4H6005.6zm2979.5 0v-1024.2h2048.4v2048.4H8985.1zm3026.1 0v-1024.2H14013v2048.4h-2001.8zm2979.5 0v-1024.2h2048.4v2048.4h-2048.4zm2979.5 0v-1024.2h2048.4v2048.4h-2048.4zm3026.1 0v-1024.2h2001.8v2048.4h-2001.8zm6005.6 0v-1024.2h2001.8v2048.4h-2001.8zm2979.5 0v-1024.2h2048.4v2048.4h-2048.4zm2979.5 0v-1024.2h2048.4v2048.4h-2048.4zm3026.1 0v-1024.2h2001.8v2048.4H35987zm2979.5 0v-1024.2h2048.4v2048.4h-2048.4zm3026 0v-1024.2h2001.9v2048.4h-2001.9zm2979.6 0v-1024.2h2048.4v2048.4h-2048.4zm3026 0v-1024.2H50000v2048.4h-2001.9zM0 16014.9v-1024.2h2001.9v2048.4H0zm2979.5 0v-1024.2h2048.4v2048.4H2979.5zm3026.1 0v-1024.2h2001.9v2048.4H6005.6zm2979.5 0v-1024.2h2048.4v2048.4H8985.1zm3026.1 0v-1024.2H14013v2048.4h-2001.8zm2979.5 0v-1024.2h2048.4v2048.4h-2048.4zm2979.5 0v-1024.2h2048.4v2048.4h-2048.4zm3026.1 0v-1024.2h2001.8v2048.4h-2001.8zm2979.5 0v-1024.2h2048.4v2048.4h-2048.4zm3026.1 0v-1024.2h2001.8v2048.4h-2001.8zm2979.5 0v-1024.2h2048.4v2048.4h-2048.4zm2979.5 0v-1024.2h2048.4v2048.4h-2048.4zm3026.1 0v-1024.2h2001.8v2048.4H35987zm2979.5 0v-1024.2h2048.4v2048.4h-2048.4zm3026 0v-1024.2h2001.9v2048.4h-2001.9zm2979.6 0v-1024.2h2048.4v2048.4h-2048.4zm3026 0v-1024.2H50000v2048.4h-2001.9zM0 13012.1v-1000.9h2001.9V14013H0zm2979.5 0v-1000.9h2048.4V14013H2979.5zm3026.1 0v-1000.9h2001.9V14013H6005.6zm2979.5 0v-1000.9h2048.4V14013H8985.1zm29981.4 0v-1000.9h2048.4V14013h-2048.4zm3026 0v-1000.9h2001.9V14013h-2001.9zm2979.6 0v-1000.9h2048.4V14013h-2048.4zm3026 0v-1000.9H50000V14013h-2001.9zM0 10009.3V8985.1h2001.9v2048.4H0zm2979.5 0V8985.1h2048.4v2048.4H2979.5zm3026.1 0V8985.1h2001.9v2048.4H6005.6zm2979.5 0V8985.1h2048.4v2048.4H8985.1zm3026.1 0V8985.1H14013v2048.4h-2001.8zm2979.5 0V8985.1h2048.4v2048.4h-2048.4zm2979.5 0V8985.1h2048.4v2048.4h-2048.4zm3026.1 0V8985.1h2001.8v2048.4h-2001.8zm2979.5 0V8985.1h2048.4v2048.4h-2048.4zm3026.1 0V8985.1h2001.8v2048.4h-2001.8zm2979.5 0V8985.1h2048.4v2048.4h-2048.4zm2979.5 0V8985.1h2048.4v2048.4h-2048.4zm3026.1 0V8985.1h2001.8v2048.4H35987zm2979.5 0V8985.1h2048.4v2048.4h-2048.4zm3026 0V8985.1h2001.9v2048.4h-2001.9zm2979.6 0V8985.1h2048.4v2048.4h-2048.4zm3026 0V8985.1H50000v2048.4h-2001.9zM0 7006.5V6005.6h2001.9v2001.9H0zm2979.5 0V6005.6h2048.4v2001.9H2979.5zm3026.1 0V6005.6h2001.9v2001.9H6005.6zm2979.5 0V6005.6h2048.4v2001.9H8985.1zm3026.1 0V6005.6H14013v2001.9h-2001.8zm2979.5 0V6005.6h2048.4v2001.9h-2048.4zm2979.5 0V6005.6h2048.4v2001.9h-2048.4zm3026.1 0V6005.6h2001.8v2001.9h-2001.8zm2979.5 0V6005.6h2048.4v2001.9h-2048.4zm3026.1 0V6005.6h2001.8v2001.9h-2001.8zm2979.5 0V6005.6h2048.4v2001.9h-2048.4zm2979.5 0V6005.6h2048.4v2001.9h-2048.4zm3026.1 0V6005.6h2001.8v2001.9H35987zm2979.5 0V6005.6h2048.4v2001.9h-2048.4zm3026 0V6005.6h2001.9v2001.9h-2001.9zm2979.6 0V6005.6h2048.4v2001.9h-2048.4zm3026 0V6005.6H50000v2001.9h-2001.9zM0 4003.7V2979.5h2001.9v2048.4H0zm2979.5 0V2979.5h2048.4v2048.4H2979.5zm3026.1 0V2979.5h2001.9v2048.4H6005.6zm2979.5 0V2979.5h2048.4v2048.4H8985.1zm3026.1 0V2979.5H14013v2048.4h-2001.8zm2979.5 0V2979.5h2048.4v2048.4h-2048.4zm2979.5 0V2979.5h2048.4v2048.4h-2048.4zm3026.1 0V2979.5h2001.8v2048.4h-2001.8zm2979.5 0V2979.5h2048.4v2048.4h-2048.4zm3026.1 0V2979.5h2001.8v2048.4h-2001.8zm2979.5 0V2979.5h2048.4v2048.4h-2048.4zm2979.5 0V2979.5h2048.4v2048.4h-2048.4zm3026.1 0V2979.5h2001.8v2048.4H35987zm2979.5 0V2979.5h2048.4v2048.4h-2048.4zm3026 0V2979.5h2001.9v2048.4h-2001.9zm2979.6 0V2979.5h2048.4v2048.4h-2048.4zm3026 0V2979.5H50000v2048.4h-2001.9zM2979.5 1000.9V0h2048.4v2001.9H2979.5zm3026.1 0V0h2001.9v2001.9H6005.6zm2979.5 0V0h2048.4v2001.9H8985.1zm3026.1 0V0H14013v2001.9h-2001.8zm2979.5 0V0h2048.4v2001.9h-2048.4zm2979.5 0V0h2048.4v2001.9h-2048.4zm3026.1 0V0h2001.8v2001.9h-2001.8zm2979.5 0V0h2048.4v2001.9h-2048.4zm3026.1 0V0h2001.8v2001.9h-2001.8zm2979.5 0V0h2048.4v2001.9h-2048.4zm2979.5 0V0h2048.4v2001.9h-2048.4zm3026.1 0V0h2001.8v2001.9H35987zm2979.5 0V0h2048.4v2001.9h-2048.4zm3026 0V0h2001.9v2001.9h-2001.9zm2979.6 0V0h2048.4v2001.9h-2048.4z" />
</svg>
