<svg xmlns="http://www.w3.org/2000/svg" width="5000" height="5000" viewBox="0 0 50000 50000" preserveAspectRatio="none">
  <path id="canvas" fill="#6d8aa5" d="M6500 0C2899 0 0 2899 0 6500v37000c0 3601 2899 6500 6500 6500h37000c3601 0 6500-2899 6500-6500V6500c0-3601-2899-6500-6500-6500H6500zm5500 11000h26000v3188.574H12000V11000zm13028.477 4753.887l6054.531 6200.879 6054.531 6200.879H30000V39000H19900V28155.645h-6980.586l6054.531-6200.879 6054.532-6200.879z" />
  <path id="arrow" fill="#fff" fill-opacity="0" d="M37137.545 28155.646H12919.42l6054.533-6200.877 6054.526-6200.881 6054.533 6200.881zm-17237.542 0h10100V39000h-10100M12000 11000h26000v3188.58H12000" />
</svg>
