<svg xmlns="http://www.w3.org/2000/svg" viewBox="0 0 100 100">
  <path d="M79.283 44.654h-6.394V28.985C72.889 15.76 62.621 5 50 5S27.111 15.76 27.111 28.985v15.669h-6.394a5.212 5.212 0 00-5.212 5.212v39.922A5.211 5.211 0 0020.717 95h58.567a5.211 5.211 0 005.212-5.212V49.866a5.213 5.213 0 00-5.213-5.212zM52.418 70.809v10.893h-4.836V70.809c-2.481-.97-4.245-3.369-4.245-6.194a6.663 6.663 0 1113.326 0c0 2.824-1.764 5.224-4.245 6.194zm14.024-26.155H33.558V28.985c0-9.67 7.376-17.537 16.442-17.537s16.442 7.867 16.442 17.537v15.669z" />
</svg>
